<?xml version="1.0" encoding="utf-8"?>
<!-- Generator: Adobe Illustrator 28.2.0, SVG Export Plug-In . SVG Version: 6.00 Build 0)  -->
<svg version="1.1" id="Layer_1" xmlns="http://www.w3.org/2000/svg" xmlns:xlink="http://www.w3.org/1999/xlink" x="0px" y="0px"
	 viewBox="0 0 545 554" enable-background="new 0 0 545 554" xml:space="preserve">
<g>
	<defs>
		<rect id="SVGID_1_" width="545" height="554"/>
	</defs>
	<clipPath id="SVGID_00000054967824531250166620000004762895762124886678_">
		<use xlink:href="#SVGID_1_"  overflow="visible"/>
	</clipPath>
	<g clip-path="url(#SVGID_00000054967824531250166620000004762895762124886678_)">
		<path fill="#FFE9CF" d="M180.9,209c-0.2-0.9-0.4-1.8-0.7-2.7c-2-7.3-4.9-14.3-8.6-21c-12.6-22.7-35.3-39.3-60.4-45.8L92,226.8
			L7.2,184.3c-2,4.5-3.5,9.2-4.7,14.2c-4.1,17.6-3,36.8,1.2,54.5c8.3,35.5,36.3,55.7,71.3,61.2c19.4,3.1,39.7,1.2,57.8-6.7
			C169.9,291.2,190.2,248,180.9,209z"/>
		<path fill="#9C8BDC" d="M105.1,127.9c-5.7-1.5-11.5-2.4-17.3-2.8c-20.1-1.4-40.6,3.9-57.8,14.5C16.8,147.6,7.2,159,1.2,172.7
			l84.8,42.4L105.1,127.9z"/>
		<path fill="#FFBF73" d="M2.6,198.6c-4.1,17.6-3,36.8,1.2,54.5c8.3,35.5,36.3,55.7,71.3,61.2c11.1,1.8,22.6,1.9,33.8,0.2l16.3-3.9
			c2.6-0.9,5.2-1.9,7.7-3c2.6-1.1,5.1-2.4,7.5-3.8L92,226.8L7.2,184.3C5.3,188.8,3.7,193.6,2.6,198.6z"/>
		<path fill="#FFFFFF" d="M209.8,32.8c-1.1-1.2-3.8-2.4-4.6-2.9c-4.3-2.5-7.7-6.6-9.5-11.2s-2-10-0.4-14.7c0.2-0.7,0.5-1.4,0.3-2.1
			c-0.2-0.7-0.9-1.3-1.6-1c-0.3,0.1-0.4,0.4-0.6,0.6c-2.2,3-5.1,5.8-8.8,6.5c-2.8,0.6-5.8-0.2-8.3-1.6c-2.5-1.4-4.6-3.4-6.7-5.3
			c-0.7-0.7-1.8-1.3-2.5-0.7c-0.4,0.4-0.4,0.9-0.4,1.5c0,3.1,0.4,6.3,0.2,9.4c-0.2,3.1-1.4,6.4-3.9,8.3c-2.6,2-6.1,2.1-9.3,2
			c-0.7,0-1.6,0-1.9,0.7c-0.4,0.9,0.8,1.6,1.7,2c4.1,1.6,7.2,5.4,8,9.7c0.8,4.3-0.8,9-4,11.9c-0.6,0.5-1.3,1.4-0.9,2
			c0.5,0.8,1.8,0.2,2.5-0.4c2.8-2.4,5.9-4.4,9.5-5.1c3.6-0.8,7.5-0.1,10.2,2.3c2.9,2.6,4,6.8,4,10.7c0,0.9,0.2,2.2,1.2,2.2
			c1,0,1.2-1.3,1.2-2.3c-0.1-2.4,0.1-4.8,0.9-7.1c1.6-4.3,5.5-7.3,9.7-9.2c4.2-1.9,8.7-2.7,13.1-4C210.6,34.3,210.6,33.5,209.8,32.8
			L209.8,32.8z"/>
		<path fill="#FFE9CF" d="M274.4,63.9c-1.2-12.1-1.5-25.4-3.1-37.5c-0.6-4.4-1.4-12.3-3.7-16.1c-2.5-3.7-8.7-1.8-12.4-1.5
			c-24.4,2.3-49.6,5.6-73.7,9.3c-1.5,0.2-3.2,0.6-4,1.9c-0.5,0.9-0.4,2.1-0.3,3.1c1.9,16.7,4,33.4,6.1,50.1c0.3,2.2,0.9,4.8,2.9,5.5
			c0.8,0.3,1.8,0.2,2.6,0.2c27-2.3,53.9-5.5,80.6-9.6c1.8-0.3,3.8-0.7,4.6-2.3C274.6,66.1,274.5,65,274.4,63.9L274.4,63.9z"/>
		<path fill="#FFA529" d="M267.6,10.3c-2.5-3.7-8.7-1.8-12.4-1.5c-24.3,2.3-49.6,5.6-73.7,9.3c-1.5,0.2-3.2,0.6-4,1.9
			c-0.5,0.9-0.4,2-0.3,3.1c0.1,1.1,0.3,2.2,0.4,3.2c30.7-3.2,61.3-6.8,91.9-11C269,13.4,268.4,11.6,267.6,10.3L267.6,10.3z"/>
		<path fill="#FFFFFF" d="M258.4,13.4c0.1-2.7-3-2.8-3.4-0.8c-0.2,0.9,0.3,1.7,1.2,2c0.3,0.1,0.7,0.1,1.1,0
			C257.8,14.4,258.2,13.9,258.4,13.4L258.4,13.4z"/>
		<path fill="#FFFFFF" d="M264.1,12.8c0.1-2.7-3-2.8-3.4-0.8c-0.2,0.9,0.3,1.7,1.2,2c0.3,0.1,0.7,0.1,1.1,0
			C263.5,13.8,263.9,13.3,264.1,12.8L264.1,12.8z"/>
		<path fill="#FFBF73" d="M256.8,45.1c-3.4,2.1-7.1,3.5-11.1,4.1c-2.5,0.4-6.7,0.9-9-0.9c3-2.2,7.2-6.5,3.8-10.3
			c-1.2-1.4-3.2-1.6-4.8-0.6c-1.5,1-2.2,3-2.5,4.8c-0.3,1.9-0.2,4,0.6,5.7c-5.3,3.4-11.9,5.3-18,3.8c-0.9-0.2-1.8-0.6-2.5-1.1
			c0.5-0.4,1-0.9,1.4-1.3c1.6-1.6,3.4-3.5,3.9-5.9c0.4-1.9-0.2-3.9-1.8-5.1c-1.5-1.1-3.5-1-4.8,0.3c-1.4,1.3-2,3.3-2.3,5.2
			c-0.3,2.1-0.4,4.5,0.8,6.4c-0.3,0.7-0.8,1.1-1.3,1.5c-3.1,2.3-8.1,5.8-11.6,2.3c-0.5-0.5-1.5,0.2-1,0.8c3.2,4.1,8.6,1.9,12.1-0.5
			c1.1-0.8,2.2-1.6,3.3-2.4c2.9,2.4,7.8,2.4,11.2,2c4.2-0.5,8.3-2.1,11.9-4.4c1.6,1.5,4,2,6.2,2.1c5.9,0.2,11.8-1.5,16.7-4.6
			C259.2,46.3,258.1,44.4,256.8,45.1z M211.7,48.5c-0.6-1.6-0.4-3.4-0.1-5c0.3-1.3,0.8-3.1,2.1-3.8c1.6-0.9,3,0.7,3.2,2.2
			c0.3,2.1-1.4,4-2.7,5.4c-0.7,0.7-1.4,1.4-2.1,2.1C212,49.1,211.8,48.8,211.7,48.5z M235.3,42.4c0.2-1.2,0.8-3.1,2.1-3.5
			c1.6-0.5,2.6,1.5,2.5,2.8c-0.2,1.8-1.7,3.2-3,4.2c-0.4,0.3-0.8,0.7-1.3,1C235,45.5,235,43.8,235.3,42.4L235.3,42.4z"/>
		<path fill="#FFA529" d="M242.5,127.6c-1.2-6.1-3.4-12-7.2-16.9c-4-5-9.4-8.4-15.4-10.6c-6.2-2.3-12.7-3.2-19.2-3.9
			c-10.3-1.1-21-1.6-31.3,0c-1.6,0.2-3.3,0.5-4.9,0.8c-9.3,1.6-19.7,1-28.2,5.6c-11.8,6.5-17.1,21.7-19.2,34.2
			c-1.2,6.8-1.6,13.8-1.7,20.7c-0.1,6.7-0.1,13.5,0.4,20.2c0.5,6,1.6,12.1,4.6,17.4c3.1,5.5,8,9.3,13.8,11.6c6,2.3,12.6,2.9,19,3.3
			c7.5,0.5,15,0.6,22.5,0.2c6.5,12.5,16.2,23.1,28.4,30.4c1.4,0.8,3.3-0.9,2.3-2.3c-6.2-9.2-8.4-20.6-6-31.3
			c6.4-1.4,12.8-3.4,18.8-5.9c5.9-2.5,11.7-5.9,15.8-11c4.3-5.4,6.1-12.1,7.1-18.8c1.1-7.8,1.7-15.7,1.9-23.6
			C243.9,140.8,243.8,134.1,242.5,127.6z"/>
		<path fill="#FFFFFF" d="M174,178.8c-3.1,0-5.4-1.9-5.9-4.7c-0.4-2.3-0.1-4.5,0.2-6.4c0.1-1.2,0.9-7.2,0.9-7.2
			c0.2-2.4,0.4-4.4,1.6-6.3c1.6-2.7,4.3-3.9,6.5-4.6c0.6-0.2,1.3-0.4,1.9-0.6c5.6-1.8,11.3-3.6,14.1-7.8c2.4-3.6,1-7.5-1.2-10
			c-2.4-2.8-6.1-4.3-10.3-4.3c-0.8,0-1.7,0.1-2.5,0.2c-2.8,0.4-5.7,1.1-8.2,2.5c-1.2,0.6-2.5,1.6-3.4,2.8c-1,1.2-1.3,2.7-2.2,3.9
			c-1.1,1.5-2.9,2.2-4.8,2.2c-2.6,0-4.8-1.6-5.4-3.9c-1.3-4.9,0.9-9.5,6.8-13.6c4-2.8,8.6-4.8,13.3-5.7c2.2-0.4,4.4-0.6,6.5-0.6
			c6.9,0,13,2.1,17.8,6c6.4,5.3,9.4,13,8,20.3c-1.5,7.5-7.9,13.8-18.1,17.7c-2.5,1-5,1.8-6.9,2.4c-0.1,0.3-0.9,6.7-0.9,6.7
			c-0.1,0.5-0.1,1-0.1,1.5c-0.1,1.8-0.3,3.8-1.2,5.7C179.5,177.1,176.8,178.8,174,178.8L174,178.8z"/>
		<path fill="#FFFFFF" d="M181.5,187.7c0-1-0.5-1.9-1.5-2.7c-1-0.7-2.2-1-3.5-1.2c-1.5-0.3-3.1-0.4-4.7-0.1c-1.5,0.3-3,1.1-4,2.3
			c-1.6,2.2-1.1,5.6,0.9,7.4c2,1.8,5.2,2.1,7.7,1C178.7,193.4,181.6,190.3,181.5,187.7L181.5,187.7z"/>
		<path fill="#FFE9CF" d="M543.2,323.2c-0.7-2.5-1.5-4.9-2.3-7.4c-1.6-4.9-3.4-9.8-5.4-14.5c-2-4.7-4.2-9.4-6.7-13.9
			c-2.5-4.4-5.2-8.7-8.3-12.8c-3.1-4.1-6.5-7.9-10.2-11.4c-0.9-0.8-1.8-1.7-2.8-2.5c-0.4-0.4-1.2-0.4-1.5,0.2
			c-3.4,2.7-6.3,4.7-9.3,6.5c-14,8.4-29.3,13.5-44.8,18.6c-0.9,0.3-1.3,1.4-0.6,2.1c6.5,6.4,12,13.7,16.2,21.8
			c3.6,7.2,6.2,15.4,6.8,23.5c0.3,4.1-0.1,8.4-1.6,12.3c-1.6,4.2-4.2,6.4-8,8.5c-0.7,0.4-0.6,1.6,0.2,1.8c5.5,0.9,11.1,1,16.7,0.5
			c5.5-0.5,11-1.7,16.3-3.3c5.5-1.6,10.8-3.7,15.9-6.1c5.2-2.4,10.3-5,15.4-7.8c2.5-1.4,5-2.8,7.4-4.2c1.2-0.7,2.5-1.4,3.7-2.2
			c1.1-0.6,2.3-1.2,3.1-2.3C545.2,328.6,543.9,325.5,543.2,323.2z"/>
		<path fill="#FFA529" d="M519.3,279.8c-0.4-0.2-1.1-0.1-1.3,0.3c-1.3,3.1-3.3,5.9-5.9,8.1c-1.2,1-2.5,1.8-4.1,2
			c-1.4,0.2-2.9-0.1-4.1-0.9c0-0.6,0.1-1.1,0.3-1.6c0.5-1.8,0.8-3.7,0.8-5.5c0-0.9-0.1-1.8-0.6-2.6c-0.5-0.8-1.4-1.3-2.3-1.2
			c-1,0-1.9,0.6-2.4,1.4c-0.6,0.8-0.8,1.8-0.8,2.8c-0.1,1.9,0.4,3.8,1.4,5.4c0.4,0.6,0.8,1.1,1.2,1.6c-0.6,1.3-1.3,2.6-2.1,3.8
			c-0.9,1.2-1.9,2.4-3.1,3.5c-1.2,1-2.5,1.9-4.1,2.2c-1.2,0.2-2.8,0-3.9-0.5c-0.5-0.2-1-0.5-1.5-0.9c0.7-2.2,1-4.3,1-6.5
			c0-1-0.2-2-0.8-2.9c-0.6-0.8-1.7-1.2-2.7-0.9c-1,0.3-1.5,1.4-1.7,2.4c-0.2,0.9-0.3,1.8-0.2,2.8c0.1,1.8,0.7,3.6,1.8,5
			c-0.5,2.7-1.3,3.9-2.6,4.6c-2.2,0.4-2.7,0.3-3.2,0.1c-0.5-0.2-0.9-0.6-1.1-1.1c-0.2-0.6-1-0.4-0.9,0.2c0.3,1.5,1.7,2.5,3.1,2.8
			c1.8,0.4,3.5-0.5,4.7-1.8c0.8-0.9,1.5-1.9,1.9-3c0.8,0.5,1.6,0.9,2.5,1.2c1.7,0.5,3.6,0.5,5.3-0.1c1.9-0.7,3.4-1.9,4.8-3.3
			c1.8-1.8,3.3-4,4.4-6.4c2.1,1.3,4.7,1.7,7.1,0.7c1.8-0.7,3.3-1.9,4.7-3.3c1.4-1.4,2.6-3,3.6-4.7c0.5-0.8,0.9-1.6,1.3-2.5
			C519.9,280.6,519.8,280,519.3,279.8L519.3,279.8z M485,295.7c-0.7-1.3-1-2.7-1-4.2c1.6-1,1.6-0.7,1.6-0.2c0,0.9,0,1.8-0.1,2.7
			c-0.1,0.6-0.2,1.3-0.4,1.9C485.1,295.9,485.1,295.8,485,295.7z M501.2,285.9c-0.5-1.4-0.8-3.1-0.4-4.5c2.3,0.4,2.3,0.7,2.3,1.1
			c0,0.4,0,0.8-0.1,1.2c0,0.4-0.1,0.7-0.1,1c-0.2,1-0.4,2-0.7,3C501.8,287.1,501.4,286.5,501.2,285.9L501.2,285.9z"/>
		<path fill="#FFA529" d="M527.5,304.6c-0.6-0.1-1.1,0.2-1.3,0.7c-1.1,3.4-2.7,6.7-5.6,9c-0.6,0.4-1.4,1-2.1,1.3
			c-0.7,0.4-1.5,0.6-2.4,0.8c-0.8,0.2-1.5,0.2-2.4,0.2c-0.4,0-0.6-0.1-1.1-0.2c-0.3-2.1,0-3.1,0.2-4.2c0.2-1.2,0.4-2.5,0.1-3.7
			c-0.5-2-2.6-3.7-4.7-3c-2.2,0.7-3.2,3.1-3,5.3c0.2,1.9,1.1,3.6,2.4,5c0.5,0.5,1,0.9,1.5,1.2c-1,2.3-2,4-3.1,5.4
			c-0.6,0.7-1.2,1.3-1.9,1.9c-0.3,0.3-0.6,0.5-0.8,0.7c-0.4,0.3-0.7,0.5-1.1,0.7c-0.4,0.2-0.8,0.4-1.2,0.6c-1.5,0.6-1.9,0.7-2.2,0.8
			c-2.6,0.3-3.8,0.2-5.1-0.3c0.5-1.6,0.7-2.7,0.9-3.9c0.2-1.2,0.2-2.4-0.1-3.5c-0.6-2-2.5-3.7-4.6-3.2c-2.2,0.5-3.4,2.8-3.2,4.9
			c0.3,2.9,2.2,5.4,4.7,6.8c-0.1,0.3-0.2,0.6-0.4,0.9c-1.3,3-3.3,6.7-6.9,6.9c-0.8,0-1.5-0.2-2.1-0.6c-0.6-0.4-1.4,0.6-0.8,1
			c0.8,0.6,1.7,1,2.8,1.1c1,0.1,2-0.1,2.9-0.5c1.9-0.8,3.3-2.5,4.3-4.3c0.7-1.2,1.3-2.5,1.8-3.8c0.4,0.1,0.7,0.2,1.1,0.3
			c4,1,8.1-0.5,11.2-3c2.6-2.1,4.4-5.1,5.6-8.2c0.5,0.2,1,0.3,1.5,0.4c2.1,0.3,4.3,0,6.2-0.8c3.9-1.7,6.7-5.1,8.3-9
			c0.4-1,0.8-2,1.1-3C528.4,305.3,528,304.7,527.5,304.6L527.5,304.6z M491.2,325.8c-1-0.9-1.3-1.2-1.4-1.4c-0.5-0.7-0.8-1.3-1-2.1
			c-0.3-0.9-0.3-1.8,0-2.7c1.9-1.5,2.5-1.3,3-0.9c0.6,0.5,0.9,1.1,1.1,1.9c0.2,0.9,0.1,1.9-0.1,2.8c-0.2,1-0.4,2-0.7,2.9
			C491.8,326.1,491.5,326,491.2,325.8L491.2,325.8z M509.8,315.2c-0.5-0.4-0.8-0.6-1-0.9c-0.3-0.3-0.4-0.5-0.7-0.8
			c-0.8-1.3-1.3-2.8-0.9-4.2c0.2-0.7,0.6-1.3,1.3-1.6c2.6,2.9,2.4,3.9,2.2,4.8C510.4,313.4,510.1,314.3,509.8,315.2
			C509.8,315.2,509.8,315.2,509.8,315.2z"/>
		<path fill="#FFE9CF" d="M497.3,231.3c-0.5-1.1-2.1-2.5-2.9-3.7c-2.1-2.7-3.6-5.9-4.2-9.3c-0.9-5.2,0.5-10.9,4.2-14.7
			c0.6-0.6,1.4-1.6,0.8-2.3c-0.5-0.5-1.3-0.3-2-0.1c-13,4.7-28.5,1.4-38.5-8.1c-0.6-0.6-1.6-1.2-2.3-0.7c-0.6,0.4-0.5,1.3-0.3,2
			c1.3,5.7,1.8,12.4-2.1,16.8c-2.9,3.3-7.6,4.4-12,5.1c-0.9,0.2-2.1,0.6-2,1.6c0.1,0.7,1,1,1.7,1.2c3.9,1,7,4.5,7.6,8.5
			c0.6,4-1.3,8.2-4.7,10.4c-0.8,0.5-1.8,1.4-1.3,2.2c0.5,0.7,1.6,0.3,2.3-0.2c3.3-1.9,7.2-2.1,11-2.1c2.5,0,5,0.1,7.3,1.2
			c4.8,2.2,6.9,7.6,10.2,11.7c0.4,0.5,0.9,0.9,1.5,0.8c0.8-0.1,0.9-1.2,1-2c0.1-3.9,1.3-7.9,3.9-10.8c4.4-4.9,11.7-5.6,18.3-5.6
			C497.3,233,497.7,232.3,497.3,231.3L497.3,231.3z"/>
		<path fill="#B1A6DC" d="M447.8,115.7c-0.3-2.1-1.2-4.1-3-5.9c-2.6-2.4-6.2-3.6-9.6-4.8c-39.6-13.2-79.2-26.4-118.8-39.7
			c-3.9-1.3-8.5-2.5-11.8,0c-2,1.5-2.9,4-3.8,6.4c-11.7,33.5-23.5,67-33.2,101.2c-0.7,2.5-1.3,5.4,0.3,7.5c1,1.2,2.5,1.8,3.9,2.4
			c43.2,15.9,86.8,30.6,130.9,43.9c2.2,0.7,4.6,1.3,6.8,0.5c3-1.1,4.4-4.6,5.5-7.6c6.5-19.1,12.9-38.2,19.2-57.3
			c3.2-9.7,6.4-19.4,9.5-29.1C445.5,127.7,448.7,121.3,447.8,115.7L447.8,115.7z"/>
		<path fill="#B1A6DC" d="M403.4,213c-40.8-12.4-81.8-26.1-121.9-40.8c9.2-31.8,16-52.8,26.8-83.6l118.5,39.6c1,0.3,2.5,0.9,3.7,1.3
			c-0.4,1.7-1.4,4.4-2,6c-0.5,1.3-1,2.7-1.5,4.2c-3.1,9.7-2.1,8.7-5.3,18.4C415.8,176.3,409.6,194.8,403.4,213z"/>
		<path fill="#4D2EB2" d="M444.8,109.7c-2.6-2.4-6.2-3.6-9.6-4.8c-39.6-13.2-79.2-26.4-118.8-39.7c-3.9-1.3-8.5-2.5-11.8,0
			c-2,1.5-2.9,4-3.8,6.4c-0.1,0.3-0.2,0.5-0.3,0.8c48.6,17.4,97.6,33.7,146.9,49c0.4-1.9,0.6-3.9,0.3-5.7
			C447.5,113.5,446.6,111.5,444.8,109.7L444.8,109.7z"/>
		<path fill="#FFA529" d="M468.5,165c-1.2-1.2-3.1,0.7-1.8,1.9c5.6,5.1,8.2,13.3,6.6,20.7c-1.1,5.2-4.4,9.7-8.7,12.7
			c-1.3-4-4.8-6.4-9-7c-4.4-0.6-9.6,1.4-10.3,6.3c-0.3,2,0.4,4.1,2,5.4c1.7,1.4,4,1.7,6.1,1.6c3.3-0.1,6.6-1,9.6-2.5
			c0.1,2.6-0.7,5.3-1.5,7.7c-1.7,4.6-4,9.2-7.3,12.8c-2.8,3-6.2,4.9-10,5.9c0.6-1.1,1.2-2.2,1.2-3.5c0-0.7-0.9-1.2-1.5-0.8
			c-1.2,0.8-2,2-2.7,3.2c-0.8,1.3-1.6,2.6-2.3,4c-0.6,1.1,0.1,2.2,1.3,2.3c1.7,0.1,3.5-0.4,5.1-0.8c1.8-0.4,3.6-0.9,5.4-1.4
			c1.8-0.5,1-3.2-0.8-2.7c-0.8,0.2-1.6,0.4-2.4,0.7c2.8-0.9,5.3-2.7,7.4-4.7c3.7-3.5,6.1-8.1,8.1-12.8c1.4-3.4,2.6-7.3,2.2-11.1
			c3.9-2.5,7.1-6,9-10.1C478.4,183.5,475.9,172,468.5,165L468.5,165z M458.8,203.2c-1.7,0.6-3.4,0.9-5.2,1c-1.8,0.1-4,0-5.3-1.5
			c-1.1-1.3-0.9-3.3,0-4.7c1.1-1.7,3.2-2.4,5.1-2.5c3.9-0.2,7.9,1.7,9,5.6C461.3,202.2,460.1,202.8,458.8,203.2z"/>
		<path fill="#FFA529" d="M451.5,49.5c-0.2-1.9-0.4-3.8-0.6-5.7c-0.1-1.7,0.2-3.9-0.5-5.5c-0.4-0.8-1.8-0.8-2.2,0
			c-0.7,1.6-0.3,3.7-0.3,5.5c-6.2-8.2-16.8-12.8-27.3-13.3c-6.7-0.3-13.4,0.8-19.7,2.8c-5.3,1.6-10.5,3.8-14.9,7.1
			c-0.3-0.2-0.6-0.3-0.9-0.5c-4.8-2.3-10.8-1.7-15.7-0.3c-5.6,1.5-10.9,4.5-15.2,8.5c-2.1,2-3.9,4.2-5.5,6.6
			c-1.6,2.6-2.6,5.2-3.4,8.1c-0.2,0.7,0.8,0.9,1,0.3c1.7-4.2,4.4-8.3,7.5-11.6c3.1-3.3,6.9-6.1,11-8c4.1-1.9,8.8-3,13.3-2.9
			c2,0,4,0.4,5.9,1.2c-3.7,3.4-7.4,8.8-5.1,13.8c1,2.2,3.2,3.9,5.8,3.7c2.8-0.2,5-2.3,5.9-4.9c1-2.9,0.6-6.3-0.5-9.1
			c-0.5-1.4-1.3-2.7-2.4-3.7c3.9-2.9,8.6-4.8,13.2-6.3c5.6-1.8,11.5-2.9,17.4-2.8c10.5,0.1,21.4,4.3,27.6,13.1
			c-0.4-0.2-0.8-0.4-1.2-0.6c-0.9-0.5-1.9-0.9-2.9-1.3c-0.9-0.3-1.7-0.6-2.6-0.5c-0.5,0.1-0.7,0.8-0.5,1.2c0.4,0.8,1.3,1.3,2.1,1.8
			c0.8,0.6,1.7,1,2.6,1.5c1.9,1,3.7,1.9,5.6,2.8C450.1,51.2,451.7,50.7,451.5,49.5L451.5,49.5z M388.8,48.7c0.5,2.6,0.4,5.7-1.7,7.5
			c-2,1.7-4.6,1.2-5.8-1.1c-2.3-4.2,1.6-8.9,4.8-11.8C387.6,44.7,388.4,46.6,388.8,48.7L388.8,48.7z"/>
		<path fill="#FFE9CF" d="M342.2,227.8c-4.9-0.3-6.7-4.9-7.6-9c-0.3-1.3-2-1-2.3,0c-1,2.6-1.3,5.2-2.4,7.2c-1,2-3.2,2.6-5.3,3
			c-1,0.2-1.1,1.9,0,2.1c2.1,0.4,4.2,0.8,5.5,2.8c1.2,2,1.9,4.2,2.8,6.3c0.5,1.1,2,0.4,2-0.6c0.2-4.4,3.6-8.1,7.6-9.8
			C343.6,229.5,343.5,227.9,342.2,227.8L342.2,227.8z M333.5,236c-0.6-1.5-1.2-2.9-2.2-4.1c-0.7-0.9-1.6-1.5-2.6-1.9
			c1.1-0.6,2-1.3,2.7-2.4c0.9-1.5,1.4-3.4,1.6-5.3c0.5,1.5,1.2,2.9,2.2,4.2c1,1.3,2.3,2.2,3.8,2.8C336.6,231,334.6,233.3,333.5,236
			L333.5,236z"/>
		<path fill="#FFE9CF" d="M282.1,216.3c-3-0.2-5.1-2.4-6.4-5c-1.2-2.4-0.6-5.7-3.5-4.1c-1,2.5-1.2,4.9-2.2,6.9c-0.8,1.4-2,2.7-3.6,3
			c-0.7,0.1-1.4,0.1-2,0.4c-0.6,0.3-1,1.2-0.5,1.7c2.9,1.1,4.6,1.3,6,3.2c1.2,2,1.9,4.2,2.8,6.3c0.5,1.1,2,0.4,2-0.6
			c0.2-4.4,3.6-8.1,7.6-9.8C283.5,218,283.4,216.4,282.1,216.3L282.1,216.3z"/>
		<path fill="#F7F7FC" d="M426.3,148.2c-0.9-0.3-1.4-0.5-1.9-0.7c-1.1-0.4-2.2-0.8-3.2-1.2c-2.1-0.7-4.2-1.5-6.3-2.2l-11.7-4.1
			c0.3-1,0.7-1.9,1-2.9c1.1-3.1,2.3-6.2,3.4-9.3c1.1-3.1,2.7-6.3,3-9.6c0-0.5-0.8-0.9-1.1-0.5c-1.8,2.2-2.7,5.1-3.8,7.7
			c-1.2,2.8-2.2,5.6-3.3,8.4c-0.6,1.7-1.3,3.4-1.9,5.2c-7.6-2.7-15.2-5.4-22.8-8.1c1.6-7.1,3.4-13.7,5.1-20.2
			c0.3-1.1-1.4-1.6-1.8-0.5c-1.8,5.8-3.8,11.5-5.7,17.2c-0.3,0.8-0.5,1.6-0.8,2.4c-7.6-2.7-15.3-5.4-22.9-8.2
			c2.3-7.2,4.5-14.1,5.9-21c0.2-1.1-1.2-1.5-1.6-0.4c-2.4,5.8-4.2,11.9-6.1,17.9c-0.3,0.9-0.6,1.8-0.9,2.6c-6.9-2.5-13.8-5-20.6-7.6
			c-0.5-0.2-1-0.4-1.5-0.5c0.1-0.3,0.2-0.5,0.2-0.8c2.1-7,4.1-14.1,6.1-21.2c0.3-1.1-1.4-1.6-1.7-0.5c-2.4,7.2-4.8,14.3-7.2,21.5
			c-3.3-1.2-6.6-2.5-9.8-3.8c-4.4-1.7-9-3.3-13.3-5.3c-1-0.4-1.8,0.9-0.9,1.5c3.8,2.3,7.9,4,12,5.7c3.7,1.5,7.4,3,11.2,4.4
			c-1.4,4.4-2.8,8.8-4.2,13.2c-0.9,2.8-1.8,5.7-2.7,8.5c-3.5-1-7-2.1-10.6-3.1c-4.7-1.3-9.5-2.8-14.3-3.7c-1.2-0.2-1.6,1.4-0.5,1.8
			c4.1,1.6,8.3,2.8,12.5,4c4,1.2,8,2.4,12,3.6c-2.2,7-4.4,14.1-6.7,21.1c-7.5-2.6-15.1-5.2-22.7-7.8c-1.5-0.5-2.1,1.8-0.7,2.4
			c7.4,2.8,14.9,5.5,22.4,8.2c-0.2,0.6-0.4,1.1-0.6,1.7c-1.1,3.3-2.2,6.6-3.5,9.9c-1.3,3.2-2.9,6.4-4.1,9.6c-0.5,1.5,1.6,2.2,2.4,1
			c1.7-2.6,2.8-5.8,4-8.7c1.1-2.9,2.2-5.7,3.2-8.6c0.5-1.3,0.9-2.7,1.3-4c7.1,2.5,14.2,5.1,21.4,7.6c-1.3,3.7-2.4,7-3.6,10.3
			c-0.6,1.7-1.2,3.4-1.8,5.2c-0.6,1.6-1.5,3.3-1.2,5.1c0.1,0.8,1,1.3,1.7,0.7c1.1-1.1,1.4-2.3,1.9-3.7c0.6-1.6,1.1-3.1,1.7-4.7
			c1.1-3,2.1-6,3.2-9c0.3-0.9,0.6-1.9,1-2.8c7.8,2.8,15.4,5.5,22.9,8.2c-2.2,6.2-4.5,12.4-6.6,18.7c-0.6,1.7,2.1,2.4,2.7,0.7
			c2.2-5.6,4.1-11.4,6.1-17.1c0.2-0.5,0.3-0.9,0.5-1.4c7.6,2.7,15.2,5.4,22.8,8c-0.6,1.9-1.2,3.9-1.9,5.8c-0.8,2.6-1.8,5.3-2.6,7.9
			c-0.3,0.2-0.4,0.5-0.5,0.9c0,0.5-0.1,0.9-0.1,1.4c0.1,1.7,2.3,1.9,2.9,0.4c1.1-2.8,1.9-5.7,2.8-8.6c0.7-2.3,1.5-4.6,2.2-6.9
			c8.6,2.9,17.2,5.6,26.1,7.7c2,0.5,2.8-2.6,0.8-3.1c-8.8-2.1-17.4-4.8-25.9-7.7c1.7-5.3,3.4-10.6,5.1-15.8c0.7-2.1,1.4-4.1,2-6.1
			c8,2.9,16.1,5.8,24.1,8.7c1.9,0.7,2.8-2.4,0.9-3.1c-8-2.9-16-5.7-24-8.5c2.2-6.4,4.4-12.9,6.7-19.3c0.9,0.3,1.9,0.7,2.8,1
			c5,1.8,10.1,3.6,15.1,5.4c1.2,0.4,2.4,0.9,3.7,1.3c1,0.4,2.2,1.1,3.3,0.7C429.2,150.5,428.4,147.5,426.3,148.2L426.3,148.2z
			 M350.9,124.2c0.4,0.1,0.8,0.3,1.2,0.4c7.2,2.6,14.5,5.2,21.7,7.8c-1.3,4.1-2.6,8.2-4,12.4c-0.8,2.4-1.5,4.8-2.3,7.2
			c-7.6-2.7-15.3-5.3-23-7.8C346.6,137.6,348.7,130.9,350.9,124.2L350.9,124.2z M326.1,115c7.3,2.8,14.7,5.6,22,8.2
			c-1.4,4.2-2.7,8.5-4.1,12.7c-0.8,2.5-1.6,4.9-2.4,7.4c-7.2-2.3-14.4-4.6-21.6-6.7C321.7,129.4,323.9,122.2,326.1,115z
			 M314.5,161.4c-0.9-0.3-1.8-0.6-2.6-0.9c1.2-3.7,2.4-7.5,3.6-11.2c1.1-3.3,2.1-6.7,3.2-10c7.4,2.2,14.8,4.5,22.1,6.9
			c-2.4,7.3-4.9,14.6-7.4,21.9C327.1,165.8,320.8,163.5,314.5,161.4z M340.2,157.1c1.1-3.4,2.2-6.7,3.4-10.1
			c7.7,2.5,15.4,5.2,23,7.9c-2.4,7.4-4.9,14.8-7.5,22.2c-7.6-2.7-15.3-5.4-22.9-8.1C337.5,165,338.8,161,340.2,157.1L340.2,157.1z
			 M384.7,185.4c-6.9-1.6-13.6-4-20.3-6.4c-0.9-0.3-1.8-0.6-2.6-0.9c1.5-4.3,3-8.7,4.4-13c1-3,2-6.1,3-9.1
			c7.1,2.6,14.2,5.1,21.3,7.7c0.4,0.1,0.8,0.3,1.2,0.4C389.3,171.1,387,178.2,384.7,185.4z M396.2,151c-1.2,3.4-2.3,6.7-3.5,10.1
			c-7.5-2.7-15-5.3-22.6-8c2.1-6.5,4.2-13,6.2-19.6c7.7,2.8,15.4,5.5,23.1,8.3C398.4,144.8,397.3,147.9,396.2,151L396.2,151z"/>
		<path fill="#9C8BDC" d="M530.7,134.7c0.3-1.7,0.1-3.7-0.3-6.2c-1.8-11-3.5-22-5.4-32.9c-1.4-8-2.8-16.3-4.3-24.4
			c-0.8-4.3-1.7-8.5-2.7-12.8c-0.8-3.6-0.7-8.1-5.4-7.5c-41.3,5.2-82.5,11.9-123.3,20.2c-2,0.4-4.2,1-5,2.9c-0.4,1-0.3,2.2-0.1,3.2
			c3.6,26.8,8.2,53.4,13.6,79.9c0.3,1.3,0.6,2.7,1.7,3.3c0.9,0.5,1.9,0.4,2.9,0.3c20.9-2.7,41.7-5.8,62.5-9.2
			c10.4-1.7,20.8-3.5,31.1-5.4c5.2-0.9,10.4-1.9,15.5-2.9c4.3-0.8,9.1-1.1,13.2-2.7C528.7,139.1,530.3,137.3,530.7,134.7
			L530.7,134.7z"/>
		<path fill="#B1A6DC" d="M518.1,58.4c-0.8-3.6-0.7-8.1-5.4-7.5c-41.3,5.2-82.5,11.9-123.3,20.2c-2,0.4-4.2,1-5,2.9
			c-0.4,1-0.3,2.2-0.1,3.2c0.2,1.6,0.4,3.1,0.6,4.7c44.7-6,89.2-13.3,133.5-22C518.3,59.4,518.2,58.9,518.1,58.4L518.1,58.4z"/>
		<path fill="#EBE8F6" d="M461.8,100.7c-2.1-3.2-4.4-6.4-7.2-9c-2.8-2.6-6.2-4.8-9.9-5.6c-0.6-0.1-1.4-0.2-1.8,0.2
			c-0.2,0.2-0.3,0.5-0.4,0.8c-0.5,1.2-1,2.5-1.5,3.7c-0.9-0.2-1.7-0.4-2.6-0.5c-5.3-0.8-12-0.7-16.9,1.7c-4.4,2.2-8.1,5.9-10.9,9.9
			c-3.7,5.3-5.1,12.2-3.8,18.5c1.3,6.4,5.4,12.1,10.9,15.5c4.8,2.9,10.6,4.1,16.3,4c7.3,0,14.9-2.1,20.1-7.2
			c5.8-5.7,7.7-14.5,6-22.4c-0.1-0.5-0.2-1.1-0.4-1.6c0.3-0.1,0.7-0.2,1-0.3C465.1,107,463.9,103.9,461.8,100.7z M419.6,96.8
			c5.9-4,13.5-5.2,20.4-3.4c-2.7,6.8-5.3,13.5-8,20.3c-3.5-1.6-7-3.1-10.4-4.6c-1.8-0.8-3.6-1.6-5.5-2.3c-1.3-0.6-2.7-1.2-4.1-1.7
			C413.8,101.7,416.5,98.9,419.6,96.8z M455.5,125.7c-1.3,2.7-3.4,5.1-6.2,7c-4.4,3-9.8,4.2-15.1,4.4c-6.8,0.2-13.9-1.5-18.8-6.1
			c-4.9-4.5-7.1-11.5-6.2-18c0.3-1.9,0.8-3.8,1.6-5.6c1.5,0.9,3.4,1.5,5,2.2c1.8,0.8,3.5,1.5,5.3,2.2c3.5,1.5,6.9,2.9,10.4,4.4
			c0.4,0.2,0.7,0.1,1,0c0.3,0.1,0.7,0,1-0.1c7.8-1.8,15.5-3.9,23-6.4C458.1,115.1,457.9,120.8,455.5,125.7L455.5,125.7z"/>
		<path fill="#EBE8F6" d="M492.6,85.3c-1.4-0.4-3,0.2-4.4,0.4c-1.6,0.3-3.2,0.5-4.8,0.8c-1.5,0.2-3,0.5-4.5,0.8
			c-1.5,0.3-3.1,0.5-4.5,1.1c-0.7,0.4-0.6,1.7,0.2,1.9c1.5,0.2,2.9-0.1,4.4-0.3c1.6-0.2,3.1-0.4,4.7-0.7c1.5-0.2,3-0.5,4.5-0.7
			c1.4-0.2,3.4-0.2,4.6-1C493.9,87.1,493.8,85.6,492.6,85.3L492.6,85.3z"/>
		<path fill="#EBE8F6" d="M503.4,91.5c-2.2,0.2-4.5,0.7-6.7,1c-2.4,0.4-4.7,0.7-7.1,1c-2.3,0.3-4.5,0.5-6.8,0.8
			c-2.3,0.3-4.7,0.4-6.8,1.2c-0.7,0.3-0.9,1.4,0,1.6c2.3,0.5,4.7,0.2,7.1,0c2.3-0.2,4.5-0.4,6.8-0.7c2.2-0.3,4.5-0.6,6.7-0.9
			c2.4-0.4,4.9-0.6,7.2-1.2C505.3,94,505.1,91.4,503.4,91.5L503.4,91.5z"/>
		<path fill="#EBE8F6" d="M487.9,101.7c-1.6,0.1-3.1,0.5-4.6,0.9c-1.5,0.3-3.1,0.5-4.5,1.2c-1,0.5-0.4,2,0.6,2
			c1.4,0.1,3-0.3,4.4-0.6c1.5-0.3,3.1-0.4,4.5-0.9C489.6,103.9,489.5,101.6,487.9,101.7L487.9,101.7z"/>
		<path fill="#4D2EB2" d="M351.4,119.2c-0.5-0.4-1.2-0.6-1.8-0.8c-8-2.5-16.1-5.1-24.1-7.6c-0.3-0.1-0.7-0.2-1,0
			c-0.2,0.1-0.4,0.4-0.5,0.7c-3.8,7.8-6.5,16.1-8.2,24.6c-0.1,0.7-0.2,1.4,0,2c0.4,0.8,1.2,1.1,2.1,1.4c8.3,2.9,16.8,5.5,25.3,7.6
			c0.3,0.1,0.7,0.2,1,0c0.2-0.1,0.4-0.4,0.5-0.7c1.7-4.6,3.2-9.3,4.7-14c0.7-2.3,1.4-4.6,2.1-7c0.5-1.7,1.8-4.4,0.3-5.9
			C351.6,119.4,351.5,119.3,351.4,119.2L351.4,119.2z"/>
		<path fill="#FFA529" d="M373.7,185.6c2.4,0.7,4.7,1.5,7.1,2.2c1.8,0.6,4.5,2.1,6.1,0.2c0.5-0.6,0.7-1.3,0.9-2
			c2.3-7.1,4.6-14.2,6.9-21.3c0.3-0.9,0.6-1.9,0.2-2.8c-0.4-0.9-1.4-1.2-2.3-1.6c-6.7-2.3-19.3-5.7-24.2-7c-1.1-0.3-2.3,0.3-2.7,1.4
			c-1.3,3.8-5.6,17.1-7.5,22.6c-0.5,1.4,0.3,2.9,1.6,3.3C363.5,182.1,370.3,184.5,373.7,185.6L373.7,185.6z"/>
		<path fill="#F7F7FC" d="M390.1,162.2c-3.2,2-6.1,4.5-9.1,6.8c-2.4,1.9-4.7,3.8-7,5.7c-0.7-4.1-1.7-8.1-3.4-12
			c-0.5-1.2-2.3-0.3-2,0.9c1.1,4.7,2.3,9.4,3,14.2c0.2,1.1,1.7,1.2,2.4,0.6c2.9-2.5,5.8-4.9,8.8-7.2c3-2.3,6.2-4.4,9.1-6.9
			C393.2,163.2,391.3,161.1,390.1,162.2L390.1,162.2z"/>
		<path fill="#F7F7FC" d="M346.5,121.3c-2.4,1.1-4.6,2.3-6.9,3.5c-1.9,1-3.9,1.9-5.8,2.8c-1.4-2.5-2.5-4.8-3.6-7.1
			c-1-2.1-1.8-5.1-3.9-6.3c-0.6-0.3-1.4,0.1-1.4,0.8c0.1,1.2,0.6,2.3,1.1,3.3c0.5,1.2,1,2.4,1.5,3.5c1,2.4,2.3,4.7,3.5,7
			c-1.9,0.8-3.8,1.5-5.8,2.2c-2.2,0.8-5.2,1.3-6.7,3.2c-0.4,0.5,0,1.5,0.7,1.5c1.2,0,2.3-0.4,3.4-0.7c1.2-0.4,2.5-0.7,3.7-1.1
			c2.1-0.7,4.2-1.5,6.2-2.4c0.8,1.4,1.6,2.8,2.5,4.1c1.4,2.2,2.8,4.6,4.3,6.7c1.1,1.5,3.5,0.2,2.5-1.5c-1.3-2.2-2.8-4.4-4.1-6.6
			c-0.8-1.3-1.6-2.7-2.4-4c1.8-0.8,3.6-1.7,5.4-2.6c2.4-1.2,4.8-2.3,7.1-3.7C349.4,123,348.3,120.5,346.5,121.3L346.5,121.3z"/>
		<path fill="#FFBF73" d="M119.2,210.7c0.9,1.6,1.6,3.2,2.4,4.8c0.9,1.9,2,3.7,2.9,5.6c1.1,2.3,2.1,4.6,3.4,6.9
			c1.3,2.3,2.7,4.5,4,6.8c2.8,4.7,5.3,9.4,7.9,14.2c5,9.4,9.9,18.9,14.1,28.7c1,2.4,2,4.8,3,7.2c0.8,1.9,1.7,3.6,2.7,5.4
			c1.6,3,3.6,6.2,4,9.6c0.3,0.3,0.5,0.8,0.1,1.2c-1.7,1.8-3.3,3.7-4.8,5.6c-0.8,1-1.5,2-2.2,3c-0.7,1-1.3,2-2,2.9
			c-1.1,1.3-2.5,2.2-4,2.9c-2.2,0.9-4.4,1.6-6.6,2.5c-4,1.6-7.9,3.4-11.9,5.1c-4,1.7-8.1,3.2-12.2,4.7c-8.1,2.9-16.3,5.6-24.2,9
			c-7.8,3.4-15.3,7.4-23.2,10.7c-1.9,0.8-3.7,1.6-5.7,2.2c-1,0.3-2.3,0.7-3.2,0c-0.8-0.6-1-1.7-1.3-2.7c-0.4-1.5-0.9-3-1.3-4.5
			c-0.4-0.1-0.7-0.6-0.4-0.9c0-0.4,0.1-0.6,0.3-0.5c0.3-0.8,0.3-1.8,0.3-2.5c0-3.2-1.1-6.4-2-9.5c-0.4-1.4-0.8-2.8-1.1-4.2
			c-0.4-1.9-0.5-3.8-0.6-5.7c-0.1-2.3-0.1-4.7-0.2-7c-0.2-2.4-0.7-4.7-1.2-7c-1.1-4.7-2.1-9.5-2.8-14.2c-1.4-9.4-0.9-19,1.4-28.2
			c1.2-4.5,2.7-9,4.8-13.3c2.1-4.4,4.8-8.5,7.9-12.2c3.1-3.8,6.6-7.2,10.2-10.5c3.9-3.5,7.9-6.9,12-10c3.9-3,7.8-5.8,12.1-8.2
			c1.6-0.9,3.3-1.8,5.1-2.5c1.7-0.7,3.5-1.2,5.3-1.2C115.5,204.7,117.7,208,119.2,210.7L119.2,210.7z"/>
		<path fill="#9C8BDC" d="M117.5,217.6c1.1,3.2,2.4,6.2,3.5,9.4c1.1,3.2,2.2,6.5,3.4,9.7c2.4,6.6,5.4,13,8.2,19.4
			c5.5,12.8,11,25.6,15.8,38.7c0.6,1.7,1.3,3.4,1.8,5.1c0.5,1.4,0.8,2.9,1.2,4.4c0.4,1.6,0.8,3.1,1.4,4.7c0.5,1.4,1.1,2.8,2.4,3.7
			c0.6,0.5,1.7-0.1,1.4-0.9c-0.5-1.2-1.2-2.2-1.6-3.4c-0.5-1.3-0.9-2.7-1.3-4.1c-0.4-1.4-0.7-2.7-1.1-4c-0.4-1.4-0.9-2.8-1.5-4.2
			c-2.4-6.5-4.8-12.9-7.3-19.4c-5.2-13-11-25.7-16.6-38.5c-1.5-3.5-2.8-7-4.3-10.5c-1.4-3.5-2.8-7.1-4.8-10.2
			C117.8,217.1,117.4,217.3,117.5,217.6L117.5,217.6z"/>
		<path fill="#9C8BDC" d="M134.9,251c0.9,3.9,2.7,7.8,4.4,11.4c1.8,3.7,3.8,7.3,5.8,10.9c4.1,7.6,7.1,15.6,9.8,23.8
			c1.2,3.5,3.1,6.8,3.9,10.4c0.3,1.3,2.2,0.6,1.9-0.7c-0.8-3.2-2.4-6.2-3.5-9.3c-1.5-4.1-2.8-8.3-4.4-12.4
			c-1.5-3.9-3.3-7.6-5.3-11.2c-2-3.6-4.2-7.1-6.2-10.6c-1.1-2-2.3-4-3.3-6.1c-1-2.1-1.9-4.3-2.8-6.4
			C135.1,250.7,134.9,250.8,134.9,251L134.9,251z"/>
		<path fill="#FFFFFF" d="M116.1,216.2c0,0,2.2,6.4,5.6,15.9c0.2,0.5,0.3,0.9,0.5,1.4c2.3,6.6,5.1,14.5,7.9,22.6
			c0.2,0.5,0.3,1,0.5,1.4c3,8.6,6.1,17.3,8.8,25c0.2,0.5,0.3,1,0.5,1.4c4.5,12.7,7.9,22.1,8.2,22.4c0.8,0.9-16.7,8.3-27.3,13.5
			c-10.6,5.2-62.9,22.7-64.1,24c-1.3,1.3-7.2-17.5-8.3-21.9c-0.1-0.5-0.4-1.6-0.7-2.9c-0.1-0.3-0.1-0.5-0.2-0.9
			c-1.3-5.8-3.7-16.6-6.2-26.7c-0.1-0.3-0.1-0.5-0.2-0.8c-1.8-7-3.6-13.7-5.2-18c-0.7-1.8-1.2-3.8-1.8-5.9c-0.1-0.2-0.1-0.5-0.2-0.7
			c-1.5-6.2-2.7-13.5-4.1-19.8c-0.1-0.6-0.8-1.6-0.9-2.2c-1.4-6.2-2.2-9-2.6-9.8c-1-1.9,11-5.4,19.2-9.4s34.9-14.3,34.9-14.3
			l6.8-3.2l19.2,4.3l8.4,4L116.1,216.2L116.1,216.2z"/>
		<path fill="#9C8BDC" d="M75.7,212.7c-1.8,0.2-3.4,0.9-5,1.5c-1.6,0.6-3.2,1.3-4.9,2c-3.4,1.4-6.8,2.8-10.2,4.1
			c-6.6,2.5-13.3,4.6-19.8,7.2c-3.5,1.4-7.2,2.9-10.4,4.9c-1,0.7-0.2,2.4,1,1.9c3.1-1.4,6.1-2.8,9.2-4.1c3.2-1.4,6.5-2.6,9.9-3.8
			c3.2-1.2,6.5-2.3,9.7-3.6c3.4-1.4,6.7-2.9,10-4.3c1.9-0.8,3.7-1.6,5.6-2.5c1.8-0.8,5.5-2.3,7.1-3.4
			C78.2,212.4,76.1,212.7,75.7,212.7L75.7,212.7z"/>
		<path fill="#FFBF73" d="M140.5,292.7c-0.1-0.2-0.2-0.6-0.3-0.9c-0.3-1.4-2.2-1.5-3.1-0.6c-0.6,0.7-1.2,1.4-1.7,2.3
			c-0.1,0.1-0.1,0.3-0.2,0.4c-0.2-1.1-0.5-2.2-1.2-3.2c-0.6-0.8-1.8-1.3-2.7-0.9c-1.9,0.8-3.3,2.4-4.2,4.1c-0.1,0-0.1,0-0.2,0
			c-0.3,0-0.3,0,0,0c-0.2,0-0.4,0-0.5,0c-2.8-0.4-2.8,3.4-2.7,5.3c0.1,1.4,0.2,2.7,0.4,4c0.1,0.6,0.2,1.7,0.6,2.1
			c0.2,0.2,0.6-0.1,0.4-0.4c-0.2-0.3-0.2-1.1-0.2-1.6c0.1,0.7,0.2,1.4,0.4,2.1c0.8,2.3,4.3,2.1,4.8-0.3c0.2-0.8,0.2-1.7,0.2-2.6
			c0-1.1,0-2.2-0.2-3.3c0-0.1,0-0.1,0-0.2c0.1-0.2,0.1-0.5,0.2-0.7c0-0.1,0.1-0.2,0.1-0.4c-0.1,0.3-0.1,0.2,0,0
			c-0.1,1.9,0,3.8,1.2,5.4c0.9,1.1,2.8,1.5,3.7,0.2c1.2-1.6,2-3.4,2.7-5.3c0.1-0.4,0.3-0.7,0.4-1.1c0.1,0.1,0.1,0.3,0.2,0.4
			c0.5,0.9,2,0.9,2.6,0.1c0.6-0.8,0.9-1.6,0.8-2.6c-0.1-0.8-0.3-1.6-0.3-2.4C141.6,292.3,140.7,292.1,140.5,292.7L140.5,292.7z"/>
		<path fill="#9C8BDC" d="M121.7,232.1c0.2,0.5,0.3,0.9,0.5,1.4c-8.4,3.1-16.8,6.2-25.2,9.3c-9.1,3.4-18.1,6.9-27.1,10.5
			c-9,3.5-18,7.1-27,10.5c-2.9,1.1-5.8,2.1-8.7,3.1c-0.1-0.2-0.1-0.5-0.2-0.7c3.9-1.3,7.7-2.9,11.6-4.4c9-3.5,17.9-7.2,26.9-10.8
			c9-3.6,18-7.1,27.1-10.5C107,237.7,114.3,234.9,121.7,232.1L121.7,232.1z"/>
		<path fill="#9C8BDC" d="M130.1,256.2c0.2,0.5,0.3,1,0.5,1.4c-0.7,0.3-1.4,0.5-2,0.8c-9.1,3.4-18.2,6.7-27.3,10.1
			c-9.1,3.4-18.1,6.9-27.1,10.5c-9,3.5-18,7.1-27,10.5c-1.9,0.7-3.9,1.4-5.8,2.1c-0.1-0.3-0.1-0.5-0.2-0.8c2.9-1.1,5.8-2.3,8.7-3.4
			c9-3.5,17.9-7.2,26.9-10.8c9-3.6,18-7.1,27.1-10.5C112.6,262.8,121.4,259.5,130.1,256.2L130.1,256.2z"/>
		<path fill="#9C8BDC" d="M139.5,282.6c0.2,0.5,0.3,1,0.5,1.4c-2.6,1-5.2,2-7.8,2.9c-9.1,3.4-18.2,6.7-27.3,10.1
			c-9.1,3.4-18.1,6.9-27.1,10.5c-9,3.5-18,7.1-27,10.5c-1,0.4-2,0.8-3.1,1.1c-0.1-0.3-0.1-0.5-0.2-0.9c2-0.8,4-1.6,5.9-2.4
			c9-3.5,17.9-7.2,26.9-10.8c9-3.6,18-7.1,27.1-10.5c9.1-3.4,18.2-6.8,27.3-10.3C136.3,283.8,137.9,283.2,139.5,282.6L139.5,282.6z"
			/>
		<path fill="#9C8BDC" d="M114.9,215.9c-3.1,1.4-6.3,2.7-9.5,3.9c-3.7,1.3-7.5,2.5-11.3,3.6c-0.4,0.1-0.8,0.2-1.2,0.3
			c-2.6,0.7-5.2,1.4-7.7,2c-3.4,0.8-6.7,1.6-10,2.6c-1.2,0.4-2.4,0.7-3.6,1.1c-0.3,0.1-0.6,0.2-0.9,0.3c-1.9,0.7-3.8,1.3-5.6,2.1
			c-5.4,2.1-10.7,4.4-16,6.8c-0.2,0.1-0.5,0.2-0.7,0.3c-0.9,0.4-1.7,0.8-2.6,1.2c-3,1.3-5.9,2.8-8.9,3.9c-2.6,1-5.4,2.1-8.2,2.2
			c-0.1-0.6-0.3-1.2-0.4-1.8c1.4-0.4,2.8-0.8,4.2-1.3c1.7-0.6,3.3-1.2,4.9-1.9c3.3-1.4,6.6-3,9.9-4.4c0.2-0.1,0.3-0.1,0.5-0.2
			c0.1-0.1,0.2-0.1,0.4-0.1c6.2-2.7,12.3-5.4,18.6-7.8c1.1-0.4,2.1-0.8,3.2-1.2c0.2-0.1,0.5-0.2,0.8-0.2c2-0.7,4-1.3,6.1-1.8
			c3.3-0.9,6.7-1.6,10-2.5c1.8-0.5,3.6-0.9,5.5-1.4c0.3-0.1,0.7-0.2,1-0.3c6.2-1.7,12.3-3.7,18.2-6.2L114.9,215.9L114.9,215.9z"/>
		<path fill="#9C8BDC" d="M25.9,234.2c1,1.6,1.7,3.4,2.4,5.2c0.7,1.8,1.3,3.7,1.9,5.5c1.2,3.9,2,7.9,2.9,11.8
			c0.8,3.5,1.5,6.9,2.5,10.4c1,3.6,2,7.3,2.9,10.9c1.9,7.4,3.7,14.9,5.5,22.4c1.8,7.5,3.6,15,5.9,22.3c2.1,6.9,4.6,13.7,6.9,20.7
			c0.1,0.4,0.2,0.8,0.4,1.1c0,0.1,0,0.1,0,0.2c-0.6,0.2-1.2,0.5-1.8,0.7c0-0.1-0.1-0.1-0.1-0.2c-0.1-0.3-0.2-0.6-0.3-0.9
			c-2.6-7.8-5.6-15.6-8-23.5c-4.4-14.6-7.5-29.6-11.3-44.4c-0.9-3.6-2-7.1-2.8-10.7c-0.8-3.5-1.5-7-2.2-10.6
			c-0.7-3.6-1.4-7.1-2.2-10.6c-0.4-1.7-0.9-3.4-1.4-5.1c-0.5-1.6-1.1-3.2-1.6-4.9C25.3,234.2,25.7,233.9,25.9,234.2L25.9,234.2z"/>
		<path fill="#9C8BDC" d="M149.3,308.4c-3.5,1.5-7.5,3-10.9,4.8c-3.3,1.8-6.7,3.4-10.1,4.9c-1.8,0.8-3.6,1.5-5.4,2.3
			c-0.6,0.2-1.1,0.5-1.7,0.7c-6.7,2.7-13.5,5.2-20.3,7.6c-0.5,0.2-0.9,0.3-1.4,0.5c-3,1-5.9,2.1-8.9,3.1c-4.4,1.5-8.8,3-13.2,4.6
			c-0.5,0.2-1,0.3-1.4,0.5c-1.5,0.5-3,1.1-4.5,1.6c-3.1,1.2-6.3,2.3-9.4,3.6c-1.7,0.7-3.3,1.4-5,2.1c-0.6,0.2-1.2,0.5-1.8,0.7
			c0-0.1-0.1-0.1-0.1-0.2c-0.1-0.3-0.2-0.6-0.3-0.9c0.6-0.3,1.2-0.6,1.8-0.8c0.2-0.1,0.5-0.2,0.7-0.3c1.7-0.8,3.5-1.5,5.2-2.2
			c3.4-1.4,6.9-2.8,10.4-4.1c0.8-0.3,1.7-0.6,2.5-0.9c0.5-0.2,0.9-0.4,1.4-0.5c7.3-2.7,14.7-5.3,22-7.9c0.5-0.2,0.9-0.3,1.4-0.5
			c3.6-1.3,7.2-2.6,10.8-3.9c3.2-1.2,6.3-2.4,9.5-3.7c0.6-0.2,1.2-0.5,1.7-0.7c2.5-1,5-2.1,7.5-3.2c6.1-2.8,12-6.1,18.2-8.8
			C149.2,306.1,150.3,308,149.3,308.4L149.3,308.4z"/>
		<path fill="#9C8BDC" d="M116.1,216.8c0.6,2.9,3.1,10.8,3.9,13.6c0.9,2.9,1.8,5.7,2.8,8.5c2,5.6,4.1,11.2,6.2,16.8
			c4.2,11.2,8.6,22.4,12.3,33.8c2.1,6.3,3.8,12.9,6.9,18.8c0.5,1,2.3,0.1,1.8-0.9c-2.6-5.3-4.3-11-6-16.6
			c-1.8-5.7-3.8-11.3-5.8-16.9c-4.1-11.2-8.4-22.3-12.5-33.5c-1.1-3.1-2.3-6.2-3.4-9.4c-1.1-3.2-3.6-11.5-4.9-14.6
			C117.1,215.9,115.9,216,116.1,216.8z"/>
		<path fill="#9C8BDC" d="M48.9,237c1.9,4.4,2.7,8.4,4.1,13c1.4,4.6,2.8,9.2,4.1,13.9c2.4,8.3,4.5,16.8,6.6,25.2
			c2.1,8.3,4,16.6,6.4,24.8c1.2,4.1,2.5,8.2,3.8,12.3c1,3,2,6,2.9,9c0.2,0.6,0.3,1.1,0.5,1.7c-0.5,0.2-0.9,0.3-1.4,0.5
			c-0.2-0.6-0.3-1.1-0.5-1.6c-0.2-0.8-0.4-1.5-0.7-2.2c-2.6-7.9-5.1-15.8-7.4-23.7c-2.3-8.1-4.1-16.2-6.2-24.4
			c-2.1-8.2-4.3-16.4-6.5-24.6c-1.1-4-2.3-8.1-3.5-12.1c-1.2-4.1-2.4-7.2-3.4-11.3C47.8,237.1,48.8,236.8,48.9,237L48.9,237z"/>
		<path fill="#9C8BDC" d="M70.7,227.1c0.1,0.2,0.2,0.3,0.2,0.5c0.2,0.6,0.5,1.1,0.7,1.7c1.6,4.3,2.3,8.8,3.5,13.2
			c1.5,5.4,2.8,10.8,4.3,16.2c2.9,10.9,5.8,21.8,9.2,32.6c3.3,10.4,7.3,20.6,10.5,31c0.4,1.5,0.9,3,1.3,4.5c0.2,0.6,0.3,1.3,0.5,1.9
			c-0.5,0.2-0.9,0.3-1.4,0.5c-0.2-0.6-0.3-1.3-0.5-1.9c-1-3.4-2-6.9-3.1-10.3c-3.4-10.2-7.2-20.2-10.3-30.5
			c-3.2-10.5-6-21.1-8.7-31.8c-1.3-5.2-2.8-10.4-3.9-15.6c-0.7-3.2-1.3-6.4-2.2-9.5c-0.2-0.8-0.5-1.5-0.7-2.3
			C70.2,227.3,70.5,227.2,70.7,227.1L70.7,227.1z"/>
		<path fill="#9C8BDC" d="M93.2,221.1c0.3,0.8,0.6,1.5,0.9,2.2c0.6,1.4,1.2,2.7,1.7,4c1.8,4.1,3.2,8.4,4.7,12.6
			c5.6,16.7,9.9,33.8,14.4,50.8c2.3,8.6,4.6,17.2,7,25.8c0.2,0.7,0.4,1.4,0.6,2c0.2,0.6,0.3,1.3,0.5,1.9c-0.6,0.2-1.1,0.5-1.7,0.7
			c-0.2-0.6-0.4-1.3-0.6-1.9c-0.5-1.7-1-3.5-1.5-5.2c-2.4-8.6-4.8-17.1-7.1-25.7c-2.3-8.6-4.5-17.2-6.9-25.8
			c-2.3-8.5-4.9-16.9-7.6-25.2c-1.2-3.7-2.5-7.3-3.8-11c-0.3-0.9-0.7-1.8-1-2.6c-0.3-0.8-0.5-1.5-0.7-2.3
			C92.6,221.3,92.9,221.2,93.2,221.1z"/>
		<path fill="#B1A6DC" d="M74,259.9c-1.5,2-2.4,4.3-3.4,6.6c-0.1,0.3-0.3,0.7-0.4,1c0.1-0.3,0.1-0.6,0.2-0.8c0.5-2.5,1.2-5,1.7-7.5
			c0.2-1-0.4-2-1.3-2.3c-0.9-0.3-2.1,0-2.5,1c0,0.1-0.2,0.7-0.3,0.9c-0.1,0.4-0.3,0.8-0.4,1.2c-0.2,0.6-0.4,1.3-0.6,2
			c-0.4,1.5-0.8,2.9-1.2,4.4c0,0.1-0.1,0.2-0.1,0.4c0.3-1.4,0.6-2.8,0.4-4.2c-0.1-0.7-0.3-1.4-0.6-2c-0.2-0.5-0.5-0.8-0.9-1.1
			c0.3,0.2,0,0-0.1-0.1c-0.2-0.1-0.4-0.3-0.6-0.4c-0.6-0.3-1.3,0-1.6,0.5c-0.8,1.5-1.7,3.1-2.3,4.7c-0.4,1.1-1.1,3,0.1,3.8
			c0.2,0.1,0.4-0.2,0.3-0.3c-0.4-0.4-0.2-1,0-1.5c0.2-0.7,0.5-1.4,0.9-2.1c0.4-0.6,0.8-1.3,1.2-1.9c0,0.1,0,0.1,0,0.2
			c0,0,0,0.1,0,0.2c0,0.1,0,0.3-0.1,0.4c-0.2,1.3-0.6,2.6-0.9,3.9c-0.8,2.8-1.4,6,0.3,8.6c0.6,0.9,2,1.3,2.9,0.5
			c0.6-0.5,1.2-1.1,1.7-1.8c0.2,0.5,0.5,0.9,0.9,1.2c0.8,0.8,2.3,0.6,3-0.2c1.2-1.5,2.2-3.2,3-5c0.3,0.7,0.7,1.4,1.3,2
			c1.2,1.2,3.1,0,3-1.5c0-0.6-0.3-1-0.7-1.3c0,0,0-0.1-0.1-0.1c-0.1-0.3-0.2-0.5-0.2-0.6c0-0.1-0.1-0.3-0.1-0.3
			c0-0.4-0.1-0.8-0.1-1.1c0-0.6,0-0.5,0.1-1c0.2-1.6,0.6-3.1,0.9-4.6C77.6,259.8,75.1,258.3,74,259.9L74,259.9z"/>
		<path fill="#ED8C72" d="M143.5,370.4c0,0,0.3,23.5-7.8,37c-0.5,0.9-0.4,2.2,0.4,3c0.7,0.8,1.8,1,2.5,0.3c2.1-2,5.8-8,9.3-15
			c6.2-12.4-0.7-28.4-0.7-28.4L143.5,370.4L143.5,370.4z"/>
		<path fill="#ED8C72" d="M136.8,384.8c0,0-1.6,8.4-17.8,16.7c-0.8,0.4-1.3,1.6-1,2.6c0.2,1,1,1.5,1.9,1.3c2.6-0.7,8.1-2.7,13.8-7.2
			c5.9-4.7,10.9-14.7,10.9-14.7L136.8,384.8L136.8,384.8z"/>
		<path fill="#ED8C72" d="M134.4,393.9c0,0-4.4,5.4-17.7,11.6c-0.9,0.4-1.4,1.5-1.3,2.6c0.1,1,0.9,1.7,1.8,1.6
			c2.7-0.4,8.5-1.7,14.7-5.7c6.5-4.1,7.7-7.1,7.7-7.1L134.4,393.9z"/>
		<path fill="#ED8C72" d="M142.9,381.6c0,0-12.5,19.7-26.6,26.2c-0.9,0.4-1.5,1.6-1.4,2.7c0.1,1.1,0.9,1.8,1.9,1.6
			c2.8-0.4,10.1-3.2,16.8-7c11.9-6.7,14-24.1,14-24.1L142.9,381.6L142.9,381.6z"/>
		<path fill="#ED8C72" d="M146.3,383c0,0-12.5,19.7-26.6,26.2c-0.9,0.4-1.5,1.6-1.4,2.7c0.2,1.1,0.9,1.8,1.9,1.6
			c2.8-0.4,9.2-3.3,15.9-7.1c11.9-6.7,14.9-23.9,14.9-23.9L146.3,383L146.3,383z"/>
		<path fill="#CA5130" d="M119.3,406c0.2,0,0.4,0,0.6-0.1c2.9-0.8,7.9-3,12.2-5.9c0.3-0.2,0.3-0.6,0.2-0.8c-0.2-0.3-0.6-0.3-0.8-0.2
			c-4.5,3-9.5,5.1-11.8,5.8c-0.2,0.1-0.4,0-0.6-0.1c-0.2-0.1-0.4-0.4-0.5-0.8c-0.1-0.3-0.4-0.5-0.7-0.4c-0.3,0.1-0.5,0.4-0.4,0.7
			c0.2,0.7,0.5,1.2,1,1.5C118.7,405.9,119,405.9,119.3,406L119.3,406z"/>
		<path fill="#CA5130" d="M117,410c4,0,13.2-5.4,16.4-7.6c0.3-0.2,0.3-0.6,0.2-0.8c-0.2-0.3-0.6-0.3-0.8-0.2
			c-4.3,2.9-13.6,8-16.2,7.3c-0.3-0.1-0.3-0.2-0.4-0.2c-0.2-0.3-0.5-0.4-0.8-0.3c-0.3,0.2-0.4,0.5-0.3,0.8c0.2,0.3,0.5,0.7,1.1,0.9
			C116.4,409.9,116.7,410,117,410L117,410z"/>
		<path fill="#CA5130" d="M118.7,412.7c0,0,0.1,0,0.2,0c2.6-0.7,11.6-4.7,16-7.7c0.3-0.2,0.3-0.6,0.2-0.8c-0.2-0.3-0.6-0.3-0.8-0.2
			c-4.2,2.9-13.2,6.9-15.6,7.5c-0.3,0.1-0.5,0.4-0.4,0.7C118.2,412.5,118.4,412.7,118.7,412.7L118.7,412.7z"/>
		<path fill="#CA5130" d="M137.8,399.2c0.1,0,0.2,0,0.2,0c0.3-0.1,6.9-3.2,8.1-10.7c0.1-0.3-0.2-0.6-0.5-0.7
			c-0.3-0.1-0.6,0.2-0.7,0.5c-1.1,6.8-7.4,9.7-7.4,9.8c-0.3,0.1-0.4,0.5-0.3,0.8C137.4,399.1,137.6,399.3,137.8,399.2L137.8,399.2z"
			/>
		<path fill="#CA5130" d="M136.1,407.1c0.1,0,0.3,0,0.4-0.1l5.7-4.6c0.3-0.2,0.3-0.6,0.1-0.8c-0.2-0.3-0.6-0.3-0.8-0.1l-5.7,4.6
			c-0.3,0.2-0.3,0.6-0.1,0.8C135.8,407,136,407.1,136.1,407.1L136.1,407.1z"/>
		<path fill="#ED8C72" d="M289.6,265c0,0-3.5,0.4-4.7,5.1c-1.6,6.6,3.8,14.7,3.8,14.7l11.7,1.1l4.2-17.6L289.6,265z"/>
		<path fill="#ED8C72" d="M289.4,270.6c1.1,0.2,2.3-0.6,2.5-1.7l2.6-14.8c0.2-1.2-0.6-2.3-1.7-2.5c-1.1-0.2-2.3,0.6-2.5,1.7
			l-2.6,14.8C287.4,269.3,288.2,270.4,289.4,270.6z"/>
		<path fill="#ED8C72" d="M294.1,272.1c1.3,0.1,2.5-0.8,2.6-2.1l0.7-6.2c0.2-1.3-0.8-2.5-2.1-2.6c-1.3-0.1-2.5,0.8-2.6,2.1l-0.7,6.2
			C291.9,270.7,292.8,271.9,294.1,272.1z"/>
		<path fill="#ED8C72" d="M298.1,273.5c1.2,0.1,2.3-0.7,2.5-2l0.7-5.8c0.1-1.2-0.7-2.3-2-2.5c-1.2-0.1-2.3,0.7-2.5,2l-0.7,5.8
			C296,272.3,296.9,273.4,298.1,273.5z"/>
		<path fill="#ED8C72" d="M300.7,274.5c1,0.3,2.1-0.3,2.5-1.3l1.5-5c0.3-1-0.3-2.1-1.3-2.5c-1-0.3-2.1,0.3-2.5,1.3l-1.5,5
			C299,273.1,299.6,274.2,300.7,274.5z"/>
		<path fill="#CA5130" d="M291.2,269.7c0.3,0,0.5-0.2,0.6-0.5l1.6-6.9c0.1-0.3-0.1-0.6-0.5-0.7c-0.3-0.1-0.6,0.1-0.7,0.4l-1.6,6.9
			c-0.1,0.3,0.1,0.6,0.5,0.7C291.1,269.7,291.2,269.7,291.2,269.7L291.2,269.7z"/>
		<path fill="#CA5130" d="M295.5,271.4c0.3,0,0.5-0.2,0.6-0.5l1.7-6.9c0.1-0.3-0.1-0.6-0.4-0.7c-0.3-0.1-0.6,0.1-0.7,0.4l-1.7,6.9
			c-0.1,0.3,0.1,0.6,0.4,0.7C295.4,271.4,295.4,271.4,295.5,271.4L295.5,271.4z"/>
		<path fill="#CA5130" d="M299.4,272.6c0.3,0,0.5-0.2,0.6-0.4l1.5-5c0.1-0.3-0.1-0.6-0.4-0.8c-0.3-0.1-0.6,0.1-0.8,0.4l-1.5,5
			c-0.1,0.3,0.1,0.6,0.4,0.8C299.3,272.6,299.3,272.6,299.4,272.6L299.4,272.6z"/>
		<path fill="#CA5130" d="M287.3,270.7c0.3,0,0.5-0.2,0.6-0.5l0.8-4.6c0.1-0.3-0.2-0.6-0.5-0.7c-0.3,0-0.6,0.2-0.7,0.5l-0.8,4.6
			c-0.1,0.3,0.2,0.6,0.5,0.7C287.2,270.7,287.2,270.7,287.3,270.7L287.3,270.7z"/>
		<path fill="#ED8C72" d="M245.7,413.7l-12.5,118.7l-26.5-4.2l9.8-116.4L245.7,413.7z"/>
		<path fill="#ED8C72" d="M173.9,401.8l-33.1,129.1l24.4,3.6l37.4-124L173.9,401.8z"/>
		<path fill="#FFC480" d="M216.5,284.5c0,0-24.8,1.3-29.9,5.1c-10.7,8-55.4,98.3-55.4,98.3l19,10.7l42-71.3l56.7-2.6
			c0,0,23,22.9,31.8,24c8.7,1.2,31.3-6.2,23-63.6l-18.9-2.8l-7.9,32.1c0,0-20.9-23.3-25.2-26.8C245.2,282.3,216.5,284.5,216.5,284.5
			L216.5,284.5z"/>
		<path d="M240.5,303.7l8.4,21l0,96.5l-83.5-7.2c0,0,24.1-81.9,31.1-108.6L240.5,303.7L240.5,303.7z"/>
		<path d="M199.4,284.7l-3,21.3l3.5,3.4l0.7-24.6C200.6,283.9,199.6,283.8,199.4,284.7L199.4,284.7z"/>
		<path d="M239.4,283.9l1.2,21.5l-3.7,3.1l1.4-24.5C238.2,283,239.3,283,239.4,283.9z"/>
		<path fill="#ED8C72" d="M216.5,284.5c0,0,7.5-0.6,15.7-0.4c0.5,2.6,0,7.4-8.8,8.1c-8.7,0.8-11.4-4.2-12.2-7.3
			C214.3,284.6,216.5,284.5,216.5,284.5L216.5,284.5z"/>
		<path fill="#E7E5F4" d="M176.9,495.8l-11.7,38.6l-24.4-3.6l11.1-43.3L176.9,495.8z"/>
		<path fill="#E7E5F4" d="M233.3,532.4l-27.4,6.8l3.7-44.2l27.4,1.8L233.3,532.4z"/>
		<path fill="#857BC6" d="M206.4,527.3l-4.3,26.5H244l0.6-7.2c0.7-8.2-2.4-17-10.9-18.3l-1.5,3.5c0,0-10.1-8.5-15.1-8.8
			C208.1,522.4,206.4,527.3,206.4,527.3L206.4,527.3z"/>
		<path d="M204.4,549h40.2c0.3,0,0.6-0.3,0.6-0.6c0-0.3-0.3-0.6-0.6-0.6h-40.2c-0.3,0-0.6,0.3-0.6,0.6
			C203.8,548.8,204,549,204.4,549z"/>
		<path fill="#857BC6" d="M139.6,527.3l-4.3,26.5h41.9l0.6-7.2c0.7-8.2-2.1-17.4-10.6-18.7l-1.8,3.9c0,0-10.1-8.5-15.1-8.8
			C141.3,522.4,139.6,527.3,139.6,527.3L139.6,527.3z"/>
		<path d="M137.6,549h40.2c0.3,0,0.6-0.3,0.6-0.6c0-0.3-0.3-0.6-0.6-0.6h-40.2c-0.3,0-0.6,0.3-0.6,0.6
			C137,548.8,137.3,549,137.6,549z"/>
		<path fill="#ED8C72" d="M236.1,264.7c-1.9-7.1-8.9-10.9-17-8.1c-6.9,2.4-9.7,8.5-7.8,15.6s8.7,3.8,15.9,5
			C234.4,278.3,238.5,273.5,236.1,264.7L236.1,264.7z"/>
		<path fill="#ED8C72" d="M232.6,264.5l4.9-3.3l-2.2,9L232.6,264.5z"/>
		<path fill="#FD521B" d="M225.4,255.7c0,0,7.4,5.9,4.2,15.2l0.5,4.5c0,0,3.1,4,2.3,11.3c-0.8,7.4-7.9,2.3-8.8,7.5
			c-0.9,5.2,4.4,11.8,2,18.3l-30.5-14.6c0,0,3-1.5,3.4-5c0.8-6.5,9.8-4.6,10.7-9.4c2.1-11.3-1.7-9.8,1.3-18.5
			C214.6,253.8,225.4,255.7,225.4,255.7L225.4,255.7z"/>
		<path fill="#ED8C72" d="M229.6,270.7c-1.7-1.6-4.2-1.6-5.6-0.1c-1.4,1.5-1.2,4,0.5,5.6c1.7,1.6,4.2,1.6,5.6,0.1
			C231.5,274.8,231.3,272.3,229.6,270.7z"/>
		<path d="M230.1,273.8c0.2,0,0.5-0.2,0.6-0.4c0.1-0.3-0.1-0.6-0.4-0.8l-3.7-1.2c-0.3-0.1-0.6,0.1-0.8,0.4c-0.1,0.3,0.1,0.6,0.4,0.8
			l3.7,1.2C230,273.8,230.1,273.8,230.1,273.8z"/>
		<path d="M228.2,275.4c0.2,0,0.5-0.1,0.6-0.4l0.7-1.7c0.1-0.3,0-0.7-0.3-0.8c-0.3-0.1-0.7,0-0.8,0.3l-0.7,1.7
			c-0.1,0.3,0,0.7,0.3,0.8C228,275.4,228.1,275.4,228.2,275.4L228.2,275.4z"/>
		<path fill="#FFFFFF" d="M234,261.4c0,0,2,3.8-3,1.7C231,263.1,230.8,257.7,234,261.4z"/>
		<path d="M230.3,261.1c0.3,0,0.6-0.2,0.6-0.5c0.1-1.1,0.6-1.5,0.6-1.5c0.2-0.2,0.3-0.6,0.1-0.8s-0.6-0.3-0.8-0.1
			c-0.1,0.1-0.9,0.7-1.1,2.4C229.6,260.8,229.9,261.1,230.3,261.1C230.2,261.1,230.3,261.1,230.3,261.1L230.3,261.1z"/>
		<defs>
			<filter id="Adobe_OpacityMaskFilter" filterUnits="userSpaceOnUse" x="231.4" y="258.3" width="3.2" height="5">
				<feColorMatrix  type="matrix" values="1 0 0 0 0  0 1 0 0 0  0 0 1 0 0  0 0 0 1 0"/>
			</filter>
		</defs>
		
			<mask maskUnits="userSpaceOnUse" x="231.4" y="258.3" width="3.2" height="5" id="mask5_2569_45720_00000062888021501595958320000001094912075796517014_">
			<path fill="#FFFFFF" filter="url(#Adobe_OpacityMaskFilter)" d="M234,261.4c0,0,2,3.8-3,1.7C231,263.1,230.8,257.7,234,261.4z"/>
		</mask>
		<g mask="url(#mask5_2569_45720_00000062888021501595958320000001094912075796517014_)">
			<path d="M234,260.3c-0.7-1.4-1.7-2.2-2.2-2c-0.5,0.3-0.4,1.6,0.3,3c0.7,1.4,1.7,2.2,2.2,2C234.8,263,234.7,261.7,234,260.3z"/>
		</g>
		<path d="M364,236.6c1.2-3.1,4.6-4.7,7.6-3.5s4.5,4.6,3.4,7.7c-1.2,3.1-4.6,4.7-7.6,3.5C364.3,243.1,362.8,239.7,364,236.6z"/>
		<path fill="#ED8C6B" d="M348.6,287.3c0,0,1.1-8.4,6.4-14.5c4-4.6,7.7-4.6,9.3-4.3c0.5,0.1,0.8,0.5,0.8,1c0,0.7-0.5,1.3-1.1,1.5
			c-0.8,0.2-1.9,0.7-3.3,1.6c-2.6,1.7-1.6,7.9-2.8,12.2c-2,6.9-6.3,9.1-6.3,9.1L348.6,287.3z"/>
		<path fill="#ED8C6B" d="M348.6,285.1c0,0,1.8-8.5,7.1-14.6c3.8-4.3,7.2-4.6,8.9-4.4c0.6,0.1,1.1,0.6,1.1,1.3c0,0.5-0.4,1-0.9,1.1
			c-0.8,0.2-2,0.7-3.5,1.7c-2.6,1.7-5,6.6-5,6.6l-3.4,8.4L348.6,285.1z"/>
		<path fill="#ED8C6B" d="M349.9,286.7c0,0-0.4-9.7,4.4-17.3c3.8-6,8.6-6.4,10.6-6.3c0.5,0,0.9,0.4,1,0.9c0.2,0.8-0.2,1.6-1,1.9
			c-0.9,0.4-2.2,1.1-3.6,2.3c-2.7,2.3-4.3,8.1-4.3,8.1l-1.7,9.9L349.9,286.7L349.9,286.7z"/>
		<path fill="#ED8C6B" d="M349.9,292.4c-3.7-2.9-2.3-15.4,2.6-23c3.8-6,8.6-6.4,10.6-6.3c0.5,0,0.9,0.4,1,0.9c0.2,0.8-0.2,1.6-1,1.9
			c-0.9,0.4-2.2,1.1-3.6,2.3c-2.7,2.3-4.3,8.1-4.3,8.1l-2,16.2C353.2,292.4,351,293.2,349.9,292.4z"/>
		<path fill="#CA5130" d="M363.3,262.8c-0.1,0-0.2,0-0.3-0.1c-0.1,0-0.2,0.1-0.2,0.2c0,0.1,0.1,0.2,0.2,0.2c0.4,0,0.7,0.3,0.8,0.7
			c0.1,0.7-0.2,1.4-0.9,1.7c-0.9,0.4-2.2,1.1-3.6,2.4c-0.6,0.5-1.2,1.3-1.8,2.2c-0.1,0.1,0,0.2,0.1,0.3c0.1,0.1,0.2,0,0.3-0.1
			c0.5-0.9,1.1-1.6,1.7-2.1c1.4-1.2,2.7-1.9,3.5-2.3c0.8-0.4,1.3-1.3,1.1-2.2C364.1,263.3,363.8,262.9,363.3,262.8L363.3,262.8z"/>
		<path fill="#CA5130" d="M365.3,265.8c0,0-0.1,0-0.2,0c-0.1,0.1-0.3,0.1-0.5,0.2c-0.9,0.4-2.2,0.9-3.4,2c-0.5,0.5-1.8,1.6-2.5,2.9
			c-0.1,0.1,0,0.2,0.1,0.3c0.1,0.1,0.2,0,0.3-0.1c0.7-1.2,2-2.4,2.4-2.8c1.2-1,2.4-1.5,3.3-1.9c0.2-0.1,0.3-0.1,0.5-0.2
			c0.1,0,0.2-0.2,0.1-0.3C365.4,265.9,365.3,265.8,365.3,265.8L365.3,265.8z"/>
		<path fill="#CA5130" d="M365.4,268.6c0,0-0.1,0-0.1,0c-0.1,0-1.9,0.4-3.4,1.2c-1.6,0.8-2.9,2.9-2.9,3c-0.1,0.1,0,0.2,0.1,0.3
			c0.1,0.1,0.2,0,0.3-0.1c0,0,1.3-2.1,2.8-2.9c1.5-0.8,3.3-1.1,3.3-1.1c0.1,0,0.2-0.1,0.2-0.3C365.5,268.6,365.5,268.6,365.4,268.6
			L365.4,268.6z"/>
		<path fill="#CA5130" d="M358.2,270.2c-0.1,0-0.2-0.1-0.3-0.1c-2.1-0.6-3.5,2.4-4.6,4.7c-0.1,0.2-0.1,0.3-0.2,0.5
			c-1,2.1-1.6,2.7-1.6,2.8c-0.1,0.1-0.1,0.2,0,0.3s0.2,0.1,0.3,0c0,0,0.6-0.6,1.7-2.9c0.1-0.2,0.1-0.3,0.2-0.5c1-2.1,2.3-4.9,4-4.5
			c0.6,0.2,1,0.4,1.2,0.8c0.4,0.7,0.2,2-0.4,3.9c-1.3,3.9-2.9,11.8-2.9,11.9c0,0.1,0.1,0.2,0.2,0.3c0.1,0,0.2-0.1,0.3-0.2
			c0-0.1,1.6-7.9,2.9-11.8c0.7-2.1,0.8-3.4,0.4-4.2C359.1,270.6,358.6,270.4,358.2,270.2L358.2,270.2z"/>
		<path fill="#FD521B" d="M389.1,530.5c-0.2,0-0.4-0.1-0.5-0.3l-2.5-5.1c-0.1-0.2-0.1-0.5,0.1-0.7c0.2-0.2,0.4-0.2,0.7-0.1l6.6,2.8
			l-5.5-4.9c-0.2-0.2-0.2-0.5-0.1-0.7c0.1-0.2,0.3-0.4,0.6-0.3l9.6,1c0.3,0,0.6,0.3,0.5,0.6c0,0.3-0.3,0.6-0.6,0.5l-7.8-0.8l6.8,6
			c0.2,0.2,0.3,0.5,0.1,0.8s-0.5,0.3-0.7,0.2l-8.5-3.6l1.8,3.7c0.1,0.3,0,0.7-0.3,0.8C389.3,530.4,389.2,530.4,389.1,530.5
			L389.1,530.5z"/>
		<path fill="#FFC480" d="M387.8,265.9c0,0,10.3-1.4,27.8,13.9s33.9,36.2,5.4,52.6C392.5,348.8,387.8,265.9,387.8,265.9L387.8,265.9
			z"/>
		<path fill="#ED8C6B" d="M423,505.3l-1.4,48.5l-44.2-0.4l0.5-17.2c0.1-4.1,3.2-7.4,7.3-7.8l9.2-0.9l2.1-23.3L423,505.3L423,505.3z"
			/>
		<path d="M423,505.3l-20.7-0.9l-5.9,0.3l-1,11.3l27.2,1.6L423,505.3z"/>
		<path fill="#ED8C6B" d="M363.6,501.1l-19.7,51.4l-57.6-27.1l4.4-9.1c3-6.1,9.9-9.2,16.5-7.3l17.3,5.1l12.8-26.5L363.6,501.1z"/>
		<path d="M363.6,501.1l-26.3-13.5l-5.1,10.5l27.1,14.2L363.6,501.1z"/>
		<path d="M364,241.8c3.5,0,6.3,2.3,6.3,5.1c0,2.8-2.8,5.1-6.3,5.1s-6.3-2.3-6.3-5.1C357.7,244.1,360.5,241.8,364,241.8z"/>
		<path fill="#ED8C6B" d="M389.3,266.3l-8.4-12.3l-8.6,6.5l7.2,10.8L389.3,266.3z"/>
		<path d="M380,254.7l-7.6,5.8l4.1,6.2C378.9,262.8,379.8,256.8,380,254.7z"/>
		<path fill="#857BC6" d="M422.5,329c0,0,7.3,23.5,7.3,79.5s-4.6,106.7-4.6,106.7l-36.1-1.2l2.5-157.2L422.5,329L422.5,329z"/>
		<path fill="#857BC6" d="M382.8,342.1l-54.5,152.4l36.5,16.2L415,357.6l7.1-3l-6.6-26.7L382.8,342.1z"/>
		<path d="M336.7,499.3c-0.1,0-0.1,0-0.2,0c-0.3-0.1-0.5-0.5-0.4-0.8l56.1-158.1c0.1-0.3,0.5-0.5,0.8-0.4c0.3,0.1,0.5,0.4,0.4,0.8
			l-56.1,158.1C337.2,499.2,336.9,499.3,336.7,499.3L336.7,499.3z"/>
		<path fill="#FFC480" d="M425.7,333.4c0,0-13.6-47.3-33.6-65.8l-3.8-7.3l-14,7.8l-1.9,5.7c0,0-8.1,6.7-13.2,16.5
			c0,0-2.4-8.5-13.8-6.4c0,0-18.1,24.6-19.3,40.6s11.3,23.2,25.3,18.5c9.6-3.2,20.6-13.4,20.6-13.4l6.4,17L425.7,333.4L425.7,333.4z
			"/>
		<path fill="#F6F6FB" d="M371.5,330.7c-0.2,0-0.3-0.1-0.4-0.2c-0.2-0.2-0.2-0.6,0-0.8c6.1-5.3,18.2-23,18.3-23.1
			c0.2-0.3,0.6-0.3,0.8-0.1c0.3,0.2,0.3,0.5,0.1,0.8c-0.5,0.7-12.3,17.9-18.5,23.4C371.8,330.7,371.7,330.7,371.5,330.7L371.5,330.7
			z"/>
		<path fill="#F6F6FB" d="M344.1,316.4c-0.1,0-0.1,0-0.2,0c-0.3-0.1-0.4-0.5-0.3-0.8c4.3-10.9,15.4-25.7,15.5-25.8
			c0.2-0.3,0.6-0.3,0.8-0.1c0.3,0.2,0.3,0.6,0.1,0.8c-0.1,0.1-11.1,14.8-15.3,25.5C344.6,316.2,344.4,316.4,344.1,316.4z"/>
		<path fill="#F6F6FB" d="M339.8,312.9c-0.2,0-0.4-0.1-0.5-0.2c-0.2-0.3-0.1-0.6,0.1-0.8c4-2.8,7.3-2.6,7.4-2.5
			c0.3,0,0.6,0.3,0.5,0.6c0,0.3-0.3,0.6-0.6,0.5c0,0-3-0.2-6.6,2.3C340,312.8,339.9,312.9,339.8,312.9L339.8,312.9z"/>
		<path fill="#F6F6FB" d="M395.4,284.4c-0.2,0-0.4-0.1-0.5-0.3c-7.9-14.5-17.1-11-17.5-10.8c-0.3,0.1-0.6,0-0.8-0.3
			c-0.1-0.3,0-0.6,0.3-0.8c0.1,0,10.5-4.1,19,11.3c0.2,0.3,0,0.6-0.2,0.8C395.6,284.4,395.5,284.4,395.4,284.4z"/>
		<path fill="#F6F6FB" d="M383.6,345.7c-0.2,0-0.5-0.1-0.6-0.4l-7.5-19.5c-0.1-0.3,0-0.6,0.3-0.8s0.6,0,0.8,0.3l7.5,19.5
			c0.1,0.3,0,0.7-0.3,0.8C383.8,345.7,383.7,345.7,383.6,345.7L383.6,345.7z"/>
		<path fill="#ED8C6B" d="M366.4,239.8c0,0-6.8,2.4-6.8,10s1.5,15.2,7.8,15.2s11.8-9.4,11.8-9.4l-3-14.4L366.4,239.8z"/>
		<path d="M362.8,260.7c-0.3,0-0.6-0.2-0.6-0.5c0-0.3,0.2-0.6,0.5-0.6c2-0.2,2.9-1.9,2.9-2c0.1-0.3,0.5-0.4,0.8-0.3
			c0.3,0.1,0.4,0.5,0.3,0.8C366.6,258.1,365.5,260.4,362.8,260.7C362.8,260.7,362.8,260.7,362.8,260.7L362.8,260.7z"/>
		<path fill="#ED8C6B" d="M361.1,254.3l-4.7,0.1l5.1,4.3L361.1,254.3z"/>
		<path fill="#D7E5FF" d="M359.6,252.7c0-2.4,1.1-4.4,2.4-4.4c1.3,0,2.4,2,2.4,4.4s-1.1,4.4-2.4,4.4
			C360.7,257.1,359.6,255.1,359.6,252.7z"/>
		<path fill="#FD521B" d="M362,257.6c-1.7,0-3-2.2-3-5s1.3-5,3-5c1.7,0,3,2.2,3,5S363.7,257.6,362,257.6z M362,248.9
			c-0.9,0-1.8,1.6-1.8,3.8s1,3.8,1.8,3.8c0.9,0,1.8-1.6,1.8-3.8S362.9,248.9,362,248.9z"/>
		<defs>
			
				<filter id="Adobe_OpacityMaskFilter_00000091733487999402960430000008758080253872023999_" filterUnits="userSpaceOnUse" x="359" y="247.7" width="6" height="9.9">
				<feColorMatrix  type="matrix" values="1 0 0 0 0  0 1 0 0 0  0 0 1 0 0  0 0 0 1 0"/>
			</filter>
		</defs>
		
			<mask maskUnits="userSpaceOnUse" x="359" y="247.7" width="6" height="9.9" id="mask10_2569_45720_00000132791213928658493670000010536412526586290054_">
			<path fill="#FFFFFF" filter="url(#Adobe_OpacityMaskFilter_00000091733487999402960430000008758080253872023999_)" d="
				M359.6,252.7c0-2.4,1.1-4.4,2.4-4.4c1.3,0,2.4,2,2.4,4.4s-1.1,4.4-2.4,4.4C360.7,257.1,359.6,255.1,359.6,252.7z"/>
		</mask>
		<g mask="url(#mask10_2569_45720_00000132791213928658493670000010536412526586290054_)">
			<path fill="#FFFFFF" d="M362,257.6c-1.7,0-3-2.2-3-5s1.3-5,3-5c1.7,0,3,2.2,3,5S363.7,257.6,362,257.6z M362,248.9
				c-0.9,0-1.8,1.6-1.8,3.8s1,3.8,1.8,3.8c0.9,0,1.8-1.6,1.8-3.8S362.9,248.9,362,248.9z"/>
		</g>
		<path d="M368.6,249.1c-1.1-2.7,0.4-5.8,3.4-6.9c2.9-1.2,6.2,0,7.2,2.7c1.1,2.7-0.5,5.8-3.4,6.9C373,253,369.7,251.8,368.6,249.1z"
			/>
		<path d="M359.1,240c0.8-1.9,4.7-2.6,8.8-1.5c4.1,1.1,6.7,3.5,5.9,5.5c-0.8,1.9-4.7,2.6-8.8,1.5C361,244.4,358.3,241.9,359.1,240z"
			/>
		<path d="M373.6,236.8c1.8-2.8,5-3.9,7.2-2.5s2.5,4.8,0.7,7.6c-1.8,2.8-5,3.9-7.2,2.5C372.1,243,371.8,239.6,373.6,236.8z"/>
		<path d="M384.9,250c3.2-2.4,4-6.8,1.7-9.8c-2.3-3.1-6.7-3.7-9.9-1.3c-3.2,2.4-4,6.8-1.7,9.8C377.3,251.8,381.7,252.3,384.9,250z"
			/>
		<path d="M381.6,245.2c3.5,0,6.3,3.1,6.3,6.9c0,3.8-2.8,6.9-6.3,6.9c-3.5,0-6.3-3.1-6.3-6.9C375.3,248.3,378.1,245.2,381.6,245.2z"
			/>
		<path d="M365.1,248.2c-0.1,0-0.2,0-0.3-0.1c0,0-1.7-1-3.5-0.7c-0.3,0.1-0.6-0.2-0.7-0.5c-0.1-0.3,0.1-0.6,0.5-0.7
			c2.3-0.5,4.3,0.8,4.4,0.8c0.3,0.2,0.4,0.5,0.2,0.8C365.5,248.1,365.3,248.2,365.1,248.2L365.1,248.2z"/>
		<path fill="#E7E5F4" d="M423,521.6l-28-1l-0.6,6.8l-9.2,0.9c-4,0.4-7.1,3.7-7.3,7.8l-0.5,17.2l44.2,0.4L423,521.6L423,521.6z"/>
		<path fill="#E7E5F4" d="M357.9,516.1l-28.1-12.9l-5.3,11l-17.3-5.1c-6.5-1.9-13.5,1.1-16.4,7.3l-4.4,9.1l57.6,27.1L357.9,516.1z"
			/>
		<path fill="#FD521B" d="M359.9,255.1c-0.2,0-0.3-0.1-0.4-0.2l-1.3-1.6c-0.2-0.2-0.2-0.6,0.1-0.8c0.2-0.2,0.6-0.2,0.8,0.1l1.3,1.6
			c0.2,0.2,0.2,0.6-0.1,0.8C360.1,255.1,360,255.1,359.9,255.1L359.9,255.1z"/>
		<path fill="#FD521B" d="M364.5,253.3c-0.2,0-0.5-0.1-0.6-0.4c-0.1-0.3,0-0.6,0.3-0.8l10.6-4c0.3-0.1,0.7,0,0.8,0.3s0,0.7-0.3,0.8
			l-10.6,4C364.6,253.3,364.5,253.3,364.5,253.3L364.5,253.3z"/>
		<path fill="#ED8C6B" d="M372.9,250.3c0.9-2.1,3-3.1,4.8-2.3c1.8,0.8,2.5,3.1,1.7,5.2c-0.9,2.1-3.1,3.1-4.8,2.3
			C372.8,254.7,372,252.4,372.9,250.3z"/>
		<path d="M374.9,253.2c-0.2,0-0.3-0.1-0.4-0.2c-0.2-0.2-0.2-0.6,0-0.8l2.8-2.6c0.2-0.2,0.6-0.2,0.8,0s0.2,0.6,0,0.8l-2.8,2.6
			C375.2,253.1,375,253.2,374.9,253.2z"/>
		<path d="M377.2,253.8c-0.1,0-0.3-0.1-0.4-0.2l-1.3-1.3c-0.2-0.2-0.2-0.6,0-0.8c0.2-0.2,0.6-0.2,0.8,0l1.3,1.3
			c0.2,0.2,0.2,0.6,0,0.8C377.5,253.8,377.3,253.8,377.2,253.8L377.2,253.8z"/>
		<path d="M390.2,433.8c-0.1,0-0.1,0-0.2,0c-0.3-0.1-0.5-0.4-0.4-0.8l24.8-75.6c0.1-0.2,0.2-0.3,0.3-0.4l5-2.1
			c0.3-0.1,0.7,0,0.8,0.3c0.1,0.3,0,0.6-0.3,0.8l-4.8,2l-24.7,75.3C390.7,433.7,390.4,433.8,390.2,433.8L390.2,433.8z"/>
		<path fill="#F6F6FB" d="M424.7,330.7c-0.2,0-0.5-0.1-0.6-0.4c-0.1-0.3-11.3-32.8-18.8-44.2c-8.8-13.3-13.7-18.1-13.7-18.2
			c0,0-0.1-0.1-0.1-0.1l-0.7-1.4c-0.1-0.3,0-0.7,0.2-0.8s0.6,0,0.8,0.2l0.7,1.3c0.7,0.6,5.4,5.5,13.8,18.3
			c7.5,11.5,18.8,44.1,18.9,44.4c0.1,0.3-0.1,0.6-0.4,0.8C424.9,330.7,424.8,330.7,424.7,330.7z"/>
		<path fill="#FD521B" d="M421.8,549.5h-44.1c-0.3,0-0.6-0.3-0.6-0.6s0.3-0.6,0.6-0.6h44.1c0.3,0,0.6,0.3,0.6,0.6
			S422.1,549.5,421.8,549.5z"/>
		<path fill="#FD521B" d="M345.6,548.7c-0.1,0-0.2,0-0.2,0l-57.5-26.3c-0.3-0.1-0.4-0.5-0.3-0.8c0.1-0.3,0.5-0.4,0.8-0.3l57.5,26.3
			c0.3,0.1,0.4,0.5,0.3,0.8C346.1,548.5,345.9,548.7,345.6,548.7L345.6,548.7z"/>
		<path fill="#FD521B" d="M325.5,516.8c-0.2,0-0.3-0.1-0.5-0.2l-5-5.9l-0.5,4.6c0,0.3-0.3,0.6-0.7,0.5c-0.3,0-0.6-0.3-0.5-0.7l0.6-6
			c0-0.2,0.2-0.4,0.4-0.5c0.2-0.1,0.5,0,0.6,0.2l4.1,4.8l-2.5-8.3c-0.1-0.3,0-0.5,0.3-0.7c0.2-0.1,0.5-0.1,0.7,0.1l6.7,6.6
			c0.2,0.2,0.2,0.6,0,0.8c-0.2,0.2-0.6,0.2-0.8,0l-5.1-5l2.7,8.8c0.1,0.3,0,0.6-0.3,0.7C325.7,516.8,325.6,516.8,325.5,516.8
			L325.5,516.8z"/>
		<path fill="#F6F6FB" d="M372.4,274.4c-0.2,0-0.4-0.1-0.5-0.3c-0.1-0.3,0-0.6,0.3-0.8l12.3-6.2c0.3-0.1,0.6,0,0.8,0.3
			s0,0.6-0.3,0.8l-12.3,6.2C372.5,274.3,372.5,274.3,372.4,274.4L372.4,274.4z"/>
		<line fill="none" stroke="#BFBFBF" stroke-width="4" stroke-linecap="round" x1="98" y1="552" x2="454" y2="552"/>
	</g>
</g>
</svg>
